<svg xmlns="http://www.w3.org/2000/svg" viewBox="0 0 500 500"><g id="freepik--Shadow--inject-4"><ellipse id="freepik--path--inject-4" cx="250" cy="416.24" rx="193.89" ry="11.32" style="fill:#f5f5f5"></ellipse></g><g id="freepik--character-2--inject-4"><polygon points="245.38 406.81 236.19 406.66 235.25 385.31 244.45 385.45 245.38 406.81" style="fill:#ff8b7b"></polygon><path d="M236.12,405.6l10,.15a.68.68,0,0,1,.69.65l.6,8.21a1.56,1.56,0,0,1-1.57,1.61c-3.61-.12-8.8-.41-13.35-.48-5.32-.09-4.81.13-11.05,0-3.77-.06-4.25-3.9-2.62-4.22,7.43-1.46,8.17-1.54,15-5.28A4.64,4.64,0,0,1,236.12,405.6Z" style="fill:#263238"></path><polygon points="235.26 385.31 235.74 396.32 244.94 396.46 244.46 385.46 235.26 385.31" style="opacity:0.2"></polygon><path d="M268.41,120.58c-11.8-2.6-23.78-2.85-35.94-1.74A9.58,9.58,0,0,0,224,126.3c-2.44,11.28-6.49,36.72-4.57,75.47l49.22.8c.8-6.92-1-39,6.41-71.32A8.81,8.81,0,0,0,268.41,120.58Z" style="fill:#407BFF"></path><path d="M239,127.51l1.4,3.68a1.11,1.11,0,0,0,.86.69l1.87.28a1.41,1.41,0,0,0,1-.19l3.49-2.09-3.72-3.33Z" style="fill:#263238"></path><path d="M243.3,131.05a4.27,4.27,0,0,0-2.18-.29c-2.09,3.78-5.34,14.82-6.2,19.74,3.3,10.08,4.69,11.18,4.69,11.18l4-11.56S242.65,137.93,243.3,131.05Z" style="fill:#263238"></path><path d="M260.44,96c-1.79,6.62-4,18.83.41,23.66-3.9,3.35-9,7.19-17,6.88s-6.22-5.7-3.91-8.44c7.62-1.23,7.82-6.8,6.88-12.11Z" style="fill:#ff8b7b"></path><path d="M263,119.28a9.66,9.66,0,0,0-1.7-.75.7.7,0,0,0-.8.24c-.9,1.23-3.82,6.8-16.57,7.78,1.93,1.42,4.29,5.48,5.3,7.41,3.95-1.57,14.31-6.42,14.13-14.06A.73.73,0,0,0,263,119.28Z" style="fill:#fff"></path><path d="M240,118.43a.73.73,0,0,0-.76-1,10.58,10.58,0,0,0-1.31.21.9.9,0,0,0-.28.13c-1,.79-7,7.82-2.76,14.42,1.26-1.54,5.14-5,9-5.69C240.51,124.6,239.07,121.47,240,118.43Z" style="fill:#fff"></path><path d="M254.9,100.08l-8,5.91a21.11,21.11,0,0,1,.38,3.75c2.89-.2,7-3,7.56-6A9.9,9.9,0,0,0,254.9,100.08Z" style="opacity:0.2"></path><path d="M244.07,92c-4.68,1.52-5.4-2.17-4.44-5.8.59-2.26-.23-3.7-.55-6.18-.55-4.07.47-7.67,8.06-10.31,9.84-3.43,7.67,2.35,8.06,4.74s-3.7,3.83-3.5,6.29A11.07,11.07,0,0,1,244.07,92Z" style="fill:#263238"></path><path d="M266.7,87.59c-2.67,8.81-3.79,14.1-9.36,17.72C249,110.76,239,104.32,239,95c0-8.43,4.37-21.43,13.88-23.12A12.16,12.16,0,0,1,266.7,87.59Z" style="fill:#ff8b7b"></path><path d="M264,78.48c-4.75-.84-10.37,1.18-15.11,0-3.76-1-3.72-3.47-3.17-6,.81-3.73,3.91-4.95,5.77-5.64s2.82,1.63,5.39-.14c1.73-1.2,8.33-1.5,12.24,0s-.56,4.33,1.53,5.64C277.11,76.34,273,80.07,264,78.48Z" style="fill:#263238"></path><path d="M249.14,77.46c-1.68-3.83.09-8.95,7.15-9.44C250.1,69.88,249.14,77.46,249.14,77.46Z" style="fill:#fff;opacity:0.30000000000000004"></path><path d="M262.67,96.51c-4-.63-3.77-5.15-1.82-8.28,1.86-3-.88-6.24-1.08-8.51s1.92-4.58,6-4.39,10.56,2.78,10.67,5.77-4.07,2.62-3.42,5.51C274.45,93.05,268.5,97.44,262.67,96.51Z" style="fill:#263238"></path><path d="M271,80.9c-1.69,3-5.2,3.65-9.75,0A12.16,12.16,0,0,0,271,80.9Z" style="fill:#fff;opacity:0.30000000000000004"></path><path d="M240.78,94.73c-1.83,1.93-1.67,5.81-1.57,7.67s1.68,4.92,7.53,5.8,7.22-1.19,7.5-3.15,0-7.53-1.89-9.39S242.85,92.54,240.78,94.73Z" style="fill:#263238"></path><path d="M244.59,97.55a6.27,6.27,0,0,0,4.84-.64.22.22,0,0,0-.24-.36,6,6,0,0,1-5.34.29.22.22,0,0,0-.29.11.22.22,0,0,0,.11.29A7.67,7.67,0,0,0,244.59,97.55Z" style="fill:#ff8b7b"></path><path d="M267.51,98a8.91,8.91,0,0,1-6.11,2.74c-3,.09-3.76-2.81-2.24-5.3,1.38-2.24,4.62-5,7.35-3.87S269.47,95.88,267.51,98Z" style="fill:#ff8b7b"></path><path d="M244.87,293.16c1.2-46.3,13-90.76,13-90.76l-38.37-.62s2.14,66.86,2.72,94.87c.61,29.12,9.71,97.49,9.71,97.49l15.58.24S245.78,329.69,244.87,293.16Z" style="fill:#263238"></path><path d="M248.61,227.87c-11.45,15-7.48,43.16-3.68,63.07.83-24.75,4.57-48.78,7.82-65.55Z" style="opacity:0.2"></path><polygon points="230.92 394.47 249.43 394.76 249.31 388.76 230.05 388.12 230.92 394.47" style="fill:#263238"></polygon><path d="M253.09,86.76c-.18.73-.7,1.24-1.17,1.14s-.72-.77-.54-1.5.69-1.24,1.16-1.14S253.26,86,253.09,86.76Z" style="fill:#263238"></path><path d="M244.73,85.22c-.17.73-.69,1.23-1.17,1.13s-.71-.77-.54-1.5.7-1.23,1.17-1.13S244.9,84.49,244.73,85.22Z" style="fill:#263238"></path><path d="M247,86.37a26.12,26.12,0,0,1-5,4.75c1,1.26,3.28,1.17,3.28,1.17Z" style="fill:#ff5652"></path><path d="M256.65,83.85a.45.45,0,0,0,.22,0,.44.44,0,0,0,.22-.58,4.17,4.17,0,0,0-3-2.5.44.44,0,0,0-.5.37.42.42,0,0,0,.35.49h0a3.35,3.35,0,0,1,2.38,2A.43.43,0,0,0,256.65,83.85Z" style="fill:#263238"></path><path d="M242.38,81.24a.46.46,0,0,0,.4-.12,3.47,3.47,0,0,1,3-1.09.46.46,0,0,0,.52-.35.43.43,0,0,0-.33-.51,4.43,4.43,0,0,0-3.78,1.33.44.44,0,0,0,0,.62A.48.48,0,0,0,242.38,81.24Z" style="fill:#263238"></path><path d="M234.43,406.42a.23.23,0,0,0,.15-.18.2.2,0,0,0-.1-.22c-.41-.22-4-2.16-5.16-1.55a.68.68,0,0,0-.39.57h0a1.18,1.18,0,0,0,.35,1.07c1,.91,3.62.59,5.12.31Zm-4.84-1.6c.71-.23,2.67.56,4.1,1.28-2.05.31-3.56.2-4.1-.31a.77.77,0,0,1-.23-.71.27.27,0,0,1,.15-.23Z" style="fill:#407BFF"></path><path d="M234.43,406.42l0,0a.2.2,0,0,0,.1-.2c0-.1-.12-2.59-1.24-3.57a1.59,1.59,0,0,0-1.19-.39h0c-.61,0-.79.35-.85.6-.22,1,1.88,3.06,3,3.58A.29.29,0,0,0,234.43,406.42Zm-2.49-3.71a.68.68,0,0,1,.23,0h0a1.09,1.09,0,0,1,.87.29,4.9,4.9,0,0,1,1.07,2.85c-1.1-.69-2.51-2.28-2.38-2.9C231.74,402.87,231.76,402.77,231.94,402.71Zm.22-.26h0Z" style="fill:#407BFF"></path><polygon points="286.18 406.81 276.98 406.66 274.66 385.31 283.87 385.45 286.18 406.81" style="fill:#ff8b7b"></polygon><path d="M276.54,405.6l10,.15a.68.68,0,0,1,.69.65l.6,8.21a1.56,1.56,0,0,1-1.57,1.61c-3.61-.12-4.73-.41-9.28-.48-5.32-.09-2.87.13-9.11,0-3.77-.06-4.24-3.88-2.62-4.22,5.15-1.07,6.56-3.11,8.94-5.28A3.3,3.3,0,0,1,276.54,405.6Z" style="fill:#263238"></path><polygon points="274.67 385.31 275.86 396.32 285.07 396.46 283.88 385.46 274.67 385.31" style="opacity:0.2"></polygon><path d="M277,292c-3.82-41.38-2.39-73.31-8.35-89.43l-32.52-.52s14.46,65.42,19.88,93c5.62,28.66,15.85,96.38,15.85,96.38l14.84.21S285.66,324,277,292Z" style="fill:#263238"></path><polygon points="269.71 394.47 288.23 394.76 289.48 388.76 268.84 388.12 269.71 394.47" style="fill:#263238"></polygon><path d="M278.34,406.29a.22.22,0,0,0,.18-.36c-.3-.35-3-3.43-4.25-3.25a.73.73,0,0,0-.56.42h0a1.22,1.22,0,0,0,0,1.13c.58,1.2,3.16,1.81,4.64,2.06Zm-3.94-3.18c.74,0,2.29,1.46,3.36,2.63-2-.41-3.37-1-3.69-1.71a.77.77,0,0,1,0-.75.26.26,0,0,1,.22-.16Z" style="fill:#407BFF"></path><path d="M278.34,406.29h.06a.22.22,0,0,0,.16-.16c0-.1.77-2.5.07-3.82a1.54,1.54,0,0,0-1-.78h0c-.58-.16-.85.06-1,.28-.56.91.69,3.56,1.52,4.42A.2.2,0,0,0,278.34,406.29Zm-1-4.38.22,0h0a1.11,1.11,0,0,1,.71.58,5.06,5.06,0,0,1,0,3.08c-.78-1-1.54-3-1.21-3.58C277.06,402,277.12,401.91,277.31,401.91Zm.29-.17h0Z" style="fill:#407BFF"></path><path d="M201.85,206.18,196.51,214l10.57,3.23s4-7.64.36-10.29Z" style="fill:#ff8b7b"></path><path d="M198.12,223.5l3.92.5a3.35,3.35,0,0,0,3.57-2.29l1.47-4.48L196.51,214l-1,5.82A3.12,3.12,0,0,0,198.12,223.5Z" style="fill:#ff8b7b"></path><path d="M236.54,129.69q-3,10.2-5.88,20.47c-1.92,6.82-3.73,13.71-5.47,20.48-.34,1.46-1,4-1.61,5.64s-1.2,3.53-1.81,5.25c-1.24,3.42-2.5,6.78-3.78,10.13l-7.57,20.09L197,206.34c2.78-6.47,5.39-13.07,7.93-19.64,1.23-3.3,2.44-6.61,3.59-9.88.57-1.64,1.13-3.27,1.62-4.85s.75-2.63,1.19-4.64c1.59-7.05,3.31-13.93,4.91-20.89s3.25-13.86,4.81-20.81Z" style="fill:#407BFF"></path><g style="opacity:0.6000000000000001"><path d="M236.54,129.69q-3,10.2-5.88,20.47c-1.92,6.82-3.73,13.71-5.47,20.48-.34,1.46-1,4-1.61,5.64s-1.2,3.53-1.81,5.25c-1.24,3.42-2.5,6.78-3.78,10.13l-7.57,20.09L197,206.34c2.78-6.47,5.39-13.07,7.93-19.64,1.23-3.3,2.44-6.61,3.59-9.88.57-1.64,1.13-3.27,1.62-4.85s.75-2.63,1.19-4.64c1.59-7.05,3.31-13.93,4.91-20.89s3.25-13.86,4.81-20.81Z" style="fill:#fff"></path></g><path d="M244.26,222.05l-56.07-3.9a3.32,3.32,0,0,1-3.06-3.27V176.39a2.82,2.82,0,0,1,3.06-2.85l56.07,3.89a3.34,3.34,0,0,1,3.06,3.28V219.2A2.82,2.82,0,0,1,244.26,222.05Z" style="fill:#263238"></path><path d="M245.23,221.48l-56.07-3.9a3.32,3.32,0,0,1-3.06-3.27V175.82a2.82,2.82,0,0,1,3.06-2.85l56.07,3.89a3.33,3.33,0,0,1,3.06,3.27v38.5A2.82,2.82,0,0,1,245.23,221.48Z" style="fill:#407BFF"></path><path d="M263.41,117.47c-4.6,6.79-20.75,17.12-24.13,33.94-4.55-16.06-.17-34.35-.17-34.35a45.71,45.71,0,0,0-13,1.78,7.66,7.66,0,0,0-5.43,6,272.37,272.37,0,0,0-3.67,53.3c.93,33.77-.27,86-.27,86s34.26,2,61.14-.9c-.65-25.8-7.34-69.63-6.29-81.08,1.35-14.73,4.59-43.48,6.26-55.44a7.15,7.15,0,0,0-5-7.88A36,36,0,0,0,263.41,117.47Z" style="fill:#407BFF"></path><path d="M263.41,117.47c-4.6,6.79-20.75,17.12-24.13,33.94-4.55-16.06-.17-34.35-.17-34.35a45.71,45.71,0,0,0-13,1.78,7.66,7.66,0,0,0-5.43,6,272.37,272.37,0,0,0-3.67,53.3c.93,33.77-.27,86-.27,86s34.26,2,61.14-.9c-.65-25.8-7.34-69.63-6.29-81.08,1.35-14.73,4.59-43.49,6.26-55.45a7,7,0,0,0-4.65-7.76A35.46,35.46,0,0,0,263.41,117.47Z" style="fill:#fff;opacity:0.7000000000000001"></path><path d="M266.19,199.61l-5.74,7.53,10.39,3.78s4.38-7.42.89-10.26Z" style="fill:#ff8b7b"></path><path d="M261.56,216.71l3.88.71a3.36,3.36,0,0,0,3.69-2.1l1.71-4.4-10.39-3.78-1.35,5.76A3.1,3.1,0,0,0,261.56,216.71Z" style="fill:#ff8b7b"></path><path d="M277.21,123.35c1.5,3.29,2.9,6.42,4.26,9.67s2.72,6.46,4,9.77S287.9,149.47,289,153c.53,1.78,1,3.6,1.43,5.57.2,1,.38,2,.52,3.1a23.27,23.27,0,0,1,.19,3.71c0,.42-.06.85-.1,1.27l-.16,1c-.12.68-.26,1.16-.39,1.75-.28,1-.58,2-.88,2.94-.62,1.84-1.27,3.54-1.95,5.21-1.36,3.35-2.81,6.53-4.29,9.7s-2.94,6.29-4.47,9.4-3,6.18-4.59,9.33l-12.81-6.82c3.25-5.79,6.32-11.84,9.16-17.83,1.4-3,2.73-6.05,3.91-9,.59-1.48,1.15-3,1.6-4.36l.31-1,.24-.95c0-.24.13-.58.14-.74l0-.27s0,0,0,0l0-.56c0-.27-.05-.5-.11-.82-.09-.59-.22-1.24-.38-1.92-.32-1.36-.75-2.82-1.24-4.29-1-3-2.17-6-3.47-9s-2.68-6-4.15-9-3-6-4.57-8.76Z" style="fill:#407BFF"></path><g style="opacity:0.7000000000000001"><path d="M277.21,123.35c1.5,3.29,2.9,6.42,4.26,9.67s2.72,6.46,4,9.77S287.9,149.47,289,153c.53,1.78,1,3.6,1.43,5.57.2,1,.38,2,.52,3.1a23.27,23.27,0,0,1,.19,3.71c0,.42-.06.85-.1,1.27l-.16,1c-.12.68-.26,1.16-.39,1.75-.28,1-.58,2-.88,2.94-.62,1.84-1.27,3.54-1.95,5.21-1.36,3.35-2.81,6.53-4.29,9.7s-2.94,6.29-4.47,9.4-3,6.18-4.59,9.33l-12.81-6.82c3.25-5.79,6.32-11.84,9.16-17.83,1.4-3,2.73-6.05,3.91-9,.59-1.48,1.15-3,1.6-4.36l.31-1,.24-.95c0-.24.13-.58.14-.74l0-.27s0,0,0,0l0-.56c0-.27-.05-.5-.11-.82-.09-.59-.22-1.24-.38-1.92-.32-1.36-.75-2.82-1.24-4.29-1-3-2.17-6-3.47-9s-2.68-6-4.15-9-3-6-4.57-8.76Z" style="fill:#fff"></path></g><path d="M256.07,201.14l16.27,11.63s2.28,15.61-6.64,17.14S254.48,212.39,256.07,201.14Z" style="fill:#407BFF"></path><path d="M256.07,201.14l16.27,11.63s2.28,15.61-6.64,17.14S254.48,212.39,256.07,201.14Z" style="fill:#fff;opacity:0.5"></path><path d="M221.56,201.14l-5.5,11.63s-1.38,15.61,1.27,17.14S221.54,212.39,221.56,201.14Z" style="fill:#407BFF"></path><path d="M221.56,201.14l-5.5,11.63s-1.38,15.61,1.27,17.14S221.54,212.39,221.56,201.14Z" style="fill:#fff;opacity:0.5"></path><path d="M240.83,261c-2.6-32.82-2.23-101.58-2-107.72l.58,0c-.21,6.14-.57,74.85,2,107.65Z" style="fill:#407BFF;opacity:0.5"></path></g><g id="freepik--character-3--inject-4"><path d="M317.51,101.92c-7.35,5.32-13.46,26.19,4.07,34.62s42.25,7.75,34.78-10.58-4.8-29.11-22.44-31.2S317.51,101.92,317.51,101.92Z" style="fill:#263238"></path><path d="M364.75,211.73l3.54,1.23,4.5,6.82a5.19,5.19,0,0,1,.83,3.38l-.26,2.42a1.67,1.67,0,0,1-1.59,1.51l-4.7.16a1.75,1.75,0,0,1-1.76-1.5l-.6-5.53S362.43,214.7,364.75,211.73Z" style="fill:#ffb573"></path><path d="M359.16,156.16c-.08,2.54-.1,5.26-.08,7.89s.07,5.31.16,8c.19,5.29.56,10.57,1.21,15.72l.06.63s0-.2,0-.15,0,0,0,.14l0,.25.08.31c.11.44.25.94.4,1.46.3,1,.66,2.12,1,3.2.75,2.17,1.59,4.37,2.45,6.56s1.76,4.37,2.69,6.53,1.9,4.33,2.88,6.23l-7.49,4.36c-1.41-2.27-2.55-4.4-3.72-6.58s-2.26-4.36-3.35-6.56-2.13-4.42-3.14-6.72c-.51-1.15-1-2.31-1.48-3.55-.24-.62-.47-1.26-.69-2l-.16-.55-.17-.62c-.05-.21-.1-.5-.15-.75s-.1-.7-.13-1.05l.07.63c-1.1-5.57-1.87-11.11-2.46-16.65-.29-2.77-.54-5.53-.75-8.31s-.38-5.5-.49-8.4Z" style="fill:#407BFF"></path><path d="M359.16,156.16c-.08,2.54-.1,5.26-.08,7.89s.07,5.31.16,8c.19,5.29.56,10.57,1.21,15.72l.06.63s0-.2,0-.15,0,0,0,.14l0,.25.08.31c.11.44.25.94.4,1.46.3,1,.66,2.12,1,3.2.75,2.17,1.59,4.37,2.45,6.56s1.76,4.37,2.69,6.53,1.9,4.33,2.88,6.23l-7.49,4.36c-1.41-2.27-2.55-4.4-3.72-6.58s-2.26-4.36-3.35-6.56-2.13-4.42-3.14-6.72c-.51-1.15-1-2.31-1.48-3.55-.24-.62-.47-1.26-.69-2l-.16-.55-.17-.62c-.05-.21-.1-.5-.15-.75s-.1-.7-.13-1.05l.07.63c-1.1-5.57-1.87-11.11-2.46-16.65-.29-2.77-.54-5.53-.75-8.31s-.38-5.5-.49-8.4Z" style="fill:#fff;opacity:0.5"></path><path d="M352.91,202.06s-1.16,68.21-4,95.82c-3.62,36-13.33,66.4-15.62,91.27L325.25,388s-.52-60.89,6.79-90c-6.63-30.87-6.79-95.9-6.79-95.9Z" style="fill:#ffb573"></path><path d="M348.15,409.11a13.28,13.28,0,0,0-3.73-1.86h0s-6.63-3.69-10.29-14.8L329,391.18a3.55,3.55,0,0,0-4.13,1.73,1.76,1.76,0,0,0-.2.64,27.16,27.16,0,0,0,.08,3.61c.15,3.76.76,12.2.76,12.2h.88a64.44,64.44,0,0,1,.29-7.66c.38-2.48,2.2.45,3.24,3.25s5,5.78,10.77,5.92C347.42,411,350.13,410.74,348.15,409.11Z" style="fill:#263238"></path><path d="M325.78,393a45.61,45.61,0,0,1-1.11-7.12l9.5,1.18s-.07,5.78,1.67,9.65A52.64,52.64,0,0,1,325.78,393Z" style="fill:#263238"></path><path d="M345.92,202.06S334.52,271,328.1,298.67c-8.37,36.1-9.53,92.95-9.53,92.95l-7.55-.73s-8.68-51.83.66-92.22c-.7-31,5.34-96.61,5.34-96.61Z" style="fill:#ffb573"></path><path d="M328,409.11a10.73,10.73,0,0,0-3.42-1.86h0s-3.72-3.69-5.51-14.8l-4.87-1.27a4.15,4.15,0,0,0-4.43,1.73,2.35,2.35,0,0,0-.31.64,28.28,28.28,0,0,0-.52,3.61c-.49,3.76-.07,12.2-.07,12.2h.88l.35-7.66c.13-2.6,2.12.45,2.69,3.25s1.78,5.78,7.48,5.92C326.92,411,329.68,410.74,328,409.11Z" style="fill:#263238"></path><path d="M309.6,393c-.32-2.6-.42-7.12-.42-7.12L320,387.08s-1.31,5.14-.23,9C314.32,394.65,309.6,393,309.6,393Z" style="fill:#263238"></path><path d="M357.71,153.06c.4,6.62.71,25.33-2.85,53.94H316.09c.05-13.86,1.18-27.13-5.14-53.19a6.87,6.87,0,0,1,5.79-8.55c2.19-.28,4.69-.53,7.3-.65a115.31,115.31,0,0,1,16.84,0c3.64.33,7.54.91,10.51,1.42A7.63,7.63,0,0,1,357.71,153.06Z" style="fill:#fff"></path><path d="M326.94,126.29c1.27,5.42,2.71,15.34-.94,19,0,0,3.38,5.37,13.85,9.89,5.77-3.49,3-9.89,3-9.89-6.1-1.44-6.11-5.93-5.22-10.14Z" style="fill:#ffb573"></path><path d="M331.3,129.89l6.32,5.22a16.4,16.4,0,0,0-.41,3c-2.32-.34-5.59-2.87-5.93-5.29A8.1,8.1,0,0,1,331.3,129.89Z" style="opacity:0.2"></path><path d="M320.85,116.35c2.44,8.81,3.3,12.59,8.62,16.38,8,5.72,17.88,1.24,18-8,.12-8.33-3.9-21.35-13.07-23.39S318.4,107.53,320.85,116.35Z" style="fill:#ffb573"></path><path d="M322.65,121c2.15-1.86,4.29-10,3.17-13.46,7.69.63,14.1-2.08,17.2.54.33-4-3.23-9.42-9.56-9.36S311.91,106.39,322.65,121Z" style="fill:#263238"></path><path d="M333.08,116.64c.15.73.66,1.25,1.13,1.16s.73-.74.57-1.46-.66-1.25-1.13-1.16S332.92,115.92,333.08,116.64Z" style="fill:#263238"></path><path d="M341.77,115.05c.16.73.67,1.25,1.14,1.16s.73-.74.57-1.46-.66-1.25-1.14-1.16S341.62,114.33,341.77,115.05Z" style="fill:#263238"></path><path d="M342.15,113.66l1.62-.81S343.17,114.37,342.15,113.66Z" style="fill:#263238"></path><path d="M340.5,116.62a20.72,20.72,0,0,0,3.57,4.17,3.07,3.07,0,0,1-2.47.95Z" style="fill:#ed893e"></path><path d="M338.69,125.39a6.9,6.9,0,0,0,1.23-.12.2.2,0,0,0,.16-.25.23.23,0,0,0-.26-.17,6,6,0,0,1-5.13-1.42.22.22,0,0,0-.31,0,.23.23,0,0,0,0,.31A6.34,6.34,0,0,0,338.69,125.39Z" style="fill:#263238"></path><path d="M318.86,122.46a7,7,0,0,0,4.2,3c2.3.54,3.27-1.49,2.49-3.56-.7-1.87-2.73-4.4-5-4S317.7,120.62,318.86,122.46Z" style="fill:#ffb573"></path><path d="M331.15,112.9a.42.42,0,0,0,.3-.17,3.32,3.32,0,0,1,2.75-1.38.43.43,0,0,0,.46-.39.47.47,0,0,0-.41-.47,4.16,4.16,0,0,0-3.5,1.71.43.43,0,0,0,.09.6A.54.54,0,0,0,331.15,112.9Z" style="fill:#263238"></path><path d="M344.64,110.22a.41.41,0,0,0,.23-.22.43.43,0,0,0-.22-.57,4.28,4.28,0,0,0-3.95,0,.43.43,0,0,0-.13.6.45.45,0,0,0,.6.15,3.4,3.4,0,0,1,3.13,0A.41.41,0,0,0,344.64,110.22Z" style="fill:#263238"></path><path d="M333.45,115.25l1.62-.81S334.47,116,333.45,115.25Z" style="fill:#263238"></path><path d="M354.86,207l.77,106.05c-18,1.47-35.21.92-51.45-2.26C303.11,271,295.33,227.15,316.09,207Z" style="fill:#263238"></path><polygon points="334.81 278.77 330.75 243.87 340.5 233.8 334.81 278.77" style="opacity:0.2"></polygon><path d="M359.46,159.64c-.49-9.31-2-13-8.12-14.12s-11.87-1.76-11.87-1.76a17.37,17.37,0,0,1,3.54,26c-4.12-7.66-19.75-19.66-16-25.91a44.84,44.84,0,0,0-10.91.78c-6,1.16-7.76,5.31-6.28,14.55,3.81,23.6.9,52.26.9,52.26s22.33,10.52,29.75,12.53c11.81-2.88,14.41-11.14,14.41-11.14S360,169,359.46,159.64Z" style="fill:#407BFF"></path><path d="M359.46,159.64c-.49-9.31-2-13-8.12-14.12s-11.87-1.76-11.87-1.76a17.37,17.37,0,0,1,3.54,26c-4.12-7.66-19.75-19.66-16-25.91a44.84,44.84,0,0,0-10.91.78c-6,1.16-7.76,5.31-6.28,14.55,3.81,23.6.9,52.26.9,52.26s22.33,10.52,29.75,12.53c11.81-2.88,14.41-11.14,14.41-11.14S360,169,359.46,159.64Z" style="fill:#fff;opacity:0.6000000000000001"></path><path d="M326.19,177.72c-4.16-6.07-7.28-15-4.86-19.51a4.92,4.92,0,0,1,4.68-2.56,5.72,5.72,0,0,1,4.29,1.9c2.7,2.95,3.64,9.08,2.87,18.72l-1-.08c.74-9.22-.14-15.26-2.6-17.95a4.65,4.65,0,0,0-3.55-1.57,3.94,3.94,0,0,0-3.77,2c-1.93,3.62.18,11.73,4.8,18.46Z" style="fill:#263238"></path><ellipse cx="327.04" cy="177.27" rx="1.53" ry="2.23" style="fill:#263238"></ellipse><path d="M334.35,176.67c0,1.23-.69,2.23-1.53,2.23s-1.53-1-1.53-2.23.69-2.23,1.53-2.23S334.35,175.44,334.35,176.67Z" style="fill:#263238"></path><path d="M354.1,158.51a2.51,2.51,0,1,1-2.74-2.33A2.55,2.55,0,0,1,354.1,158.51Z" style="fill:#263238"></path><path d="M325.51,156.69a.51.51,0,0,1-.47-.33,28.29,28.29,0,0,1-1.17-12.65.5.5,0,0,1,.56-.45.51.51,0,0,1,.45.56A28.4,28.4,0,0,0,326,156a.5.5,0,0,1-.28.66A.46.46,0,0,1,325.51,156.69Z" style="fill:#263238"></path><path d="M352.57,158.48a.51.51,0,0,1-.51-.48c0-.11-.71-11.3-9.46-13.36a.51.51,0,0,1-.38-.61.52.52,0,0,1,.62-.38c9.49,2.24,10.23,14.18,10.24,14.3a.5.5,0,0,1-.48.53Z" style="fill:#263238"></path><path d="M327.25,196.74,336,163.41a2.47,2.47,0,0,1,2.37-1.75l23.83.89a1.45,1.45,0,0,1,1.41,1.89l-8.79,33.33a2.46,2.46,0,0,1-2.37,1.75l-23.82-.89A1.45,1.45,0,0,1,327.25,196.74Z" style="fill:#263238"></path><path d="M327.5,197.33,336.29,164a2.45,2.45,0,0,1,2.37-1.75l23.82.89a1.44,1.44,0,0,1,1.41,1.89l-8.78,33.34a2.47,2.47,0,0,1-2.38,1.74l-23.82-.89A1.44,1.44,0,0,1,327.5,197.33Z" style="fill:#407BFF"></path><path d="M324.37,186.09l.42-3.73,5.68-5.88a5.18,5.18,0,0,1,3.12-1.53l2.42-.28a1.67,1.67,0,0,1,1.82,1.22l1.18,4.56a1.75,1.75,0,0,1-1.08,2l-5.27,1.78S327.78,187.71,324.37,186.09Z" style="fill:#ffb573"></path><path d="M321.58,155.38c-.36.47-.82,1.11-1.23,1.68l-1.25,1.81q-1.25,1.83-2.4,3.71a85.66,85.66,0,0,0-4.21,7.66,49.41,49.41,0,0,0-3,7.78,20.84,20.84,0,0,0-.93,7.17l-2.25-3.71h0c-.63-.4-.61-.26-.47-.23a5,5,0,0,0,.77.18,16.74,16.74,0,0,0,2.33.24,44.82,44.82,0,0,0,5.39-.17c1.84-.16,3.68-.42,5.48-.76a38.07,38.07,0,0,0,5.18-1.35l3.32,8a46,46,0,0,1-6.28,2.31,63.13,63.13,0,0,1-6.32,1.52,55.05,55.05,0,0,1-6.6.84,28.06,28.06,0,0,1-3.67,0,14.12,14.12,0,0,1-2.2-.31,8.74,8.74,0,0,1-3.24-1.37h0l-1.89-1.24-.36-2.46a31.3,31.3,0,0,1,.59-11.42,61.12,61.12,0,0,1,3.16-9.89,97.74,97.74,0,0,1,4.29-9.06q1.17-2.19,2.43-4.33l1.3-2.13c.45-.73.86-1.38,1.41-2.19Z" style="fill:#407BFF"></path><path d="M321.58,155.38c-.36.47-.82,1.11-1.23,1.68l-1.25,1.81q-1.25,1.83-2.4,3.71a85.66,85.66,0,0,0-4.21,7.66,49.41,49.41,0,0,0-3,7.78,20.84,20.84,0,0,0-.93,7.17l-2.25-3.71h0c-.63-.4-.61-.26-.47-.23a5,5,0,0,0,.77.18,16.74,16.74,0,0,0,2.33.24,44.82,44.82,0,0,0,5.39-.17c1.84-.16,3.68-.42,5.48-.76a38.07,38.07,0,0,0,5.18-1.35l3.32,8a46,46,0,0,1-6.28,2.31,63.13,63.13,0,0,1-6.32,1.52,55.05,55.05,0,0,1-6.6.84,28.06,28.06,0,0,1-3.67,0,14.12,14.12,0,0,1-2.2-.31,8.74,8.74,0,0,1-3.24-1.37h0l-1.89-1.24-.36-2.46a31.3,31.3,0,0,1,.59-11.42,61.12,61.12,0,0,1,3.16-9.89,97.74,97.74,0,0,1,4.29-9.06q1.17-2.19,2.43-4.33l1.3-2.13c.45-.73.86-1.38,1.41-2.19Z" style="fill:#fff;opacity:0.6000000000000001"></path></g></svg>